<?xml version="1.0" encoding="UTF-8"?>
<svg xmlns="http://www.w3.org/2000/svg" xmlns:xlink="http://www.w3.org/1999/xlink" width="102px" height="40px" viewBox="0 0 102 40" version="1.1">
<defs>
<clipPath id="clip1">
  <path d="M 9.914062 16 L 29 16 L 29 36.898438 L 9.914062 36.898438 Z M 9.914062 16 "/>
</clipPath>
<clipPath id="clip2">
  <path d="M 16.789062 13.644531 L 31.265625 31.804688 L 22.050781 39.164062 L 7.574219 21.003906 Z M 16.789062 13.644531 "/>
</clipPath>
<clipPath id="clip3">
  <path d="M 27.589844 27.191406 C 29.621094 29.738281 29.203125 33.453125 26.65625 35.484375 C 24.113281 37.515625 20.40625 37.097656 18.375 34.550781 L 11.25 25.617188 C 9.222656 23.070312 9.640625 19.359375 12.183594 17.324219 C 14.726562 15.292969 18.4375 15.710938 20.46875 18.257812 Z M 27.589844 27.191406 "/>
</clipPath>
<clipPath id="clip4">
  <path d="M 2.757812 7.515625 L 14.546875 7.515625 L 14.546875 36.488281 L 2.757812 36.488281 Z M 2.757812 7.515625 "/>
</clipPath>
<clipPath id="clip5">
  <path d="M 14.546875 30.589844 C 14.546875 33.847656 11.910156 36.488281 8.652344 36.488281 C 5.398438 36.488281 2.757812 33.847656 2.757812 30.589844 L 2.757812 13.414062 C 2.757812 10.15625 5.398438 7.515625 8.652344 7.515625 C 11.910156 7.515625 14.546875 10.15625 14.546875 13.414062 Z M 14.546875 30.589844 "/>
</clipPath>
<linearGradient id="linear0" gradientUnits="userSpaceOnUse" x1="0.00560615" y1="128" x2="628.604972" y2="128" gradientTransform="matrix(0,0.0460933,-0.0460513,0,14.547473,7.51369)">
<stop offset="0" style="stop-color:rgb(100%,87.058824%,34.901961%);stop-opacity:1;"/>
<stop offset="0.0078125" style="stop-color:rgb(100%,87.058824%,34.901961%);stop-opacity:1;"/>
<stop offset="0.015625" style="stop-color:rgb(100%,86.666667%,34.901961%);stop-opacity:1;"/>
<stop offset="0.0234375" style="stop-color:rgb(100%,86.666667%,34.901961%);stop-opacity:1;"/>
<stop offset="0.03125" style="stop-color:rgb(100%,86.27451%,34.901961%);stop-opacity:1;"/>
<stop offset="0.0390625" style="stop-color:rgb(100%,85.882353%,34.901961%);stop-opacity:1;"/>
<stop offset="0.046875" style="stop-color:rgb(100%,85.882353%,34.509804%);stop-opacity:1;"/>
<stop offset="0.0546875" style="stop-color:rgb(100%,85.490196%,34.509804%);stop-opacity:1;"/>
<stop offset="0.0625" style="stop-color:rgb(100%,85.490196%,34.509804%);stop-opacity:1;"/>
<stop offset="0.0703125" style="stop-color:rgb(100%,85.098039%,34.509804%);stop-opacity:1;"/>
<stop offset="0.078125" style="stop-color:rgb(100%,84.705882%,34.509804%);stop-opacity:1;"/>
<stop offset="0.0859375" style="stop-color:rgb(100%,84.705882%,34.509804%);stop-opacity:1;"/>
<stop offset="0.09375" style="stop-color:rgb(100%,84.313725%,34.509804%);stop-opacity:1;"/>
<stop offset="0.101562" style="stop-color:rgb(100%,84.313725%,34.509804%);stop-opacity:1;"/>
<stop offset="0.109375" style="stop-color:rgb(100%,83.921569%,34.509804%);stop-opacity:1;"/>
<stop offset="0.117188" style="stop-color:rgb(100%,83.529412%,34.509804%);stop-opacity:1;"/>
<stop offset="0.125" style="stop-color:rgb(100%,83.529412%,34.509804%);stop-opacity:1;"/>
<stop offset="0.132813" style="stop-color:rgb(100%,83.137255%,34.117647%);stop-opacity:1;"/>
<stop offset="0.140625" style="stop-color:rgb(100%,83.137255%,34.117647%);stop-opacity:1;"/>
<stop offset="0.148438" style="stop-color:rgb(100%,82.745098%,34.117647%);stop-opacity:1;"/>
<stop offset="0.15625" style="stop-color:rgb(100%,82.352941%,34.117647%);stop-opacity:1;"/>
<stop offset="0.164063" style="stop-color:rgb(100%,82.352941%,34.117647%);stop-opacity:1;"/>
<stop offset="0.171875" style="stop-color:rgb(100%,81.960784%,34.117647%);stop-opacity:1;"/>
<stop offset="0.179688" style="stop-color:rgb(100%,81.960784%,34.117647%);stop-opacity:1;"/>
<stop offset="0.1875" style="stop-color:rgb(100%,81.568627%,34.117647%);stop-opacity:1;"/>
<stop offset="0.195312" style="stop-color:rgb(100%,81.176471%,34.117647%);stop-opacity:1;"/>
<stop offset="0.203125" style="stop-color:rgb(100%,81.176471%,34.117647%);stop-opacity:1;"/>
<stop offset="0.210938" style="stop-color:rgb(100%,80.784314%,34.117647%);stop-opacity:1;"/>
<stop offset="0.21875" style="stop-color:rgb(100%,80.784314%,33.72549%);stop-opacity:1;"/>
<stop offset="0.226562" style="stop-color:rgb(100%,80.392157%,33.72549%);stop-opacity:1;"/>
<stop offset="0.234375" style="stop-color:rgb(100%,80%,33.72549%);stop-opacity:1;"/>
<stop offset="0.242188" style="stop-color:rgb(100%,80%,33.72549%);stop-opacity:1;"/>
<stop offset="0.25" style="stop-color:rgb(100%,79.607843%,33.72549%);stop-opacity:1;"/>
<stop offset="0.257812" style="stop-color:rgb(100%,79.607843%,33.72549%);stop-opacity:1;"/>
<stop offset="0.265625" style="stop-color:rgb(100%,79.215686%,33.72549%);stop-opacity:1;"/>
<stop offset="0.273438" style="stop-color:rgb(100%,78.823529%,33.72549%);stop-opacity:1;"/>
<stop offset="0.28125" style="stop-color:rgb(100%,78.823529%,33.72549%);stop-opacity:1;"/>
<stop offset="0.289063" style="stop-color:rgb(100%,78.431373%,33.72549%);stop-opacity:1;"/>
<stop offset="0.296875" style="stop-color:rgb(100%,78.431373%,33.333333%);stop-opacity:1;"/>
<stop offset="0.304688" style="stop-color:rgb(100%,78.039216%,33.333333%);stop-opacity:1;"/>
<stop offset="0.3125" style="stop-color:rgb(100%,77.647059%,33.333333%);stop-opacity:1;"/>
<stop offset="0.320313" style="stop-color:rgb(100%,77.647059%,33.333333%);stop-opacity:1;"/>
<stop offset="0.328125" style="stop-color:rgb(100%,77.254902%,33.333333%);stop-opacity:1;"/>
<stop offset="0.335938" style="stop-color:rgb(100%,77.254902%,33.333333%);stop-opacity:1;"/>
<stop offset="0.34375" style="stop-color:rgb(100%,76.862745%,33.333333%);stop-opacity:1;"/>
<stop offset="0.351563" style="stop-color:rgb(100%,76.470588%,33.333333%);stop-opacity:1;"/>
<stop offset="0.359375" style="stop-color:rgb(100%,76.470588%,33.333333%);stop-opacity:1;"/>
<stop offset="0.367188" style="stop-color:rgb(100%,76.078431%,33.333333%);stop-opacity:1;"/>
<stop offset="0.375" style="stop-color:rgb(100%,76.078431%,33.333333%);stop-opacity:1;"/>
<stop offset="0.382812" style="stop-color:rgb(100%,75.686275%,32.941176%);stop-opacity:1;"/>
<stop offset="0.390625" style="stop-color:rgb(100%,75.294118%,32.941176%);stop-opacity:1;"/>
<stop offset="0.398438" style="stop-color:rgb(100%,75.294118%,32.941176%);stop-opacity:1;"/>
<stop offset="0.40625" style="stop-color:rgb(100%,74.901961%,32.941176%);stop-opacity:1;"/>
<stop offset="0.414062" style="stop-color:rgb(100%,74.901961%,32.941176%);stop-opacity:1;"/>
<stop offset="0.421875" style="stop-color:rgb(100%,74.509804%,32.941176%);stop-opacity:1;"/>
<stop offset="0.429688" style="stop-color:rgb(100%,74.117647%,32.941176%);stop-opacity:1;"/>
<stop offset="0.4375" style="stop-color:rgb(100%,74.117647%,32.941176%);stop-opacity:1;"/>
<stop offset="0.445312" style="stop-color:rgb(100%,73.72549%,32.941176%);stop-opacity:1;"/>
<stop offset="0.453125" style="stop-color:rgb(100%,73.72549%,32.941176%);stop-opacity:1;"/>
<stop offset="0.460938" style="stop-color:rgb(100%,73.333333%,32.941176%);stop-opacity:1;"/>
<stop offset="0.46875" style="stop-color:rgb(100%,72.941176%,32.54902%);stop-opacity:1;"/>
<stop offset="0.476562" style="stop-color:rgb(100%,72.941176%,32.54902%);stop-opacity:1;"/>
<stop offset="0.484375" style="stop-color:rgb(100%,72.54902%,32.54902%);stop-opacity:1;"/>
<stop offset="0.492188" style="stop-color:rgb(100%,72.156863%,32.54902%);stop-opacity:1;"/>
<stop offset="0.5" style="stop-color:rgb(100%,72.156863%,32.54902%);stop-opacity:1;"/>
<stop offset="0.507812" style="stop-color:rgb(100%,71.764706%,32.54902%);stop-opacity:1;"/>
<stop offset="0.515625" style="stop-color:rgb(100%,71.764706%,32.54902%);stop-opacity:1;"/>
<stop offset="0.523438" style="stop-color:rgb(100%,71.372549%,32.54902%);stop-opacity:1;"/>
<stop offset="0.53125" style="stop-color:rgb(100%,70.980392%,32.54902%);stop-opacity:1;"/>
<stop offset="0.539062" style="stop-color:rgb(100%,70.980392%,32.54902%);stop-opacity:1;"/>
<stop offset="0.546875" style="stop-color:rgb(100%,70.588235%,32.156863%);stop-opacity:1;"/>
<stop offset="0.554688" style="stop-color:rgb(100%,70.588235%,32.156863%);stop-opacity:1;"/>
<stop offset="0.5625" style="stop-color:rgb(100%,70.196078%,32.156863%);stop-opacity:1;"/>
<stop offset="0.570312" style="stop-color:rgb(100%,69.803922%,32.156863%);stop-opacity:1;"/>
<stop offset="0.578125" style="stop-color:rgb(100%,69.803922%,32.156863%);stop-opacity:1;"/>
<stop offset="0.585938" style="stop-color:rgb(100%,69.411765%,32.156863%);stop-opacity:1;"/>
<stop offset="0.59375" style="stop-color:rgb(100%,69.411765%,32.156863%);stop-opacity:1;"/>
<stop offset="0.601562" style="stop-color:rgb(100%,69.019608%,32.156863%);stop-opacity:1;"/>
<stop offset="0.609375" style="stop-color:rgb(100%,68.627451%,32.156863%);stop-opacity:1;"/>
<stop offset="0.617188" style="stop-color:rgb(100%,68.627451%,32.156863%);stop-opacity:1;"/>
<stop offset="0.625" style="stop-color:rgb(100%,68.235294%,32.156863%);stop-opacity:1;"/>
<stop offset="0.632812" style="stop-color:rgb(100%,68.235294%,31.764706%);stop-opacity:1;"/>
<stop offset="0.640625" style="stop-color:rgb(100%,67.843137%,31.764706%);stop-opacity:1;"/>
<stop offset="0.648438" style="stop-color:rgb(100%,67.45098%,31.764706%);stop-opacity:1;"/>
<stop offset="0.65625" style="stop-color:rgb(100%,67.45098%,31.764706%);stop-opacity:1;"/>
<stop offset="0.664062" style="stop-color:rgb(100%,67.058824%,31.764706%);stop-opacity:1;"/>
<stop offset="0.671875" style="stop-color:rgb(100%,67.058824%,31.764706%);stop-opacity:1;"/>
<stop offset="0.679688" style="stop-color:rgb(100%,66.666667%,31.764706%);stop-opacity:1;"/>
<stop offset="0.6875" style="stop-color:rgb(100%,66.27451%,31.764706%);stop-opacity:1;"/>
<stop offset="0.695312" style="stop-color:rgb(100%,66.27451%,31.764706%);stop-opacity:1;"/>
<stop offset="0.703125" style="stop-color:rgb(100%,65.882353%,31.764706%);stop-opacity:1;"/>
<stop offset="0.710938" style="stop-color:rgb(100%,65.882353%,31.764706%);stop-opacity:1;"/>
<stop offset="0.71875" style="stop-color:rgb(100%,65.490196%,31.372549%);stop-opacity:1;"/>
<stop offset="0.726562" style="stop-color:rgb(100%,65.098039%,31.372549%);stop-opacity:1;"/>
<stop offset="0.734375" style="stop-color:rgb(100%,65.098039%,31.372549%);stop-opacity:1;"/>
<stop offset="0.742188" style="stop-color:rgb(100%,64.705882%,31.372549%);stop-opacity:1;"/>
<stop offset="0.75" style="stop-color:rgb(100%,64.705882%,31.372549%);stop-opacity:1;"/>
<stop offset="0.757812" style="stop-color:rgb(100%,64.313725%,31.372549%);stop-opacity:1;"/>
<stop offset="0.765625" style="stop-color:rgb(100%,63.921569%,31.372549%);stop-opacity:1;"/>
<stop offset="0.773438" style="stop-color:rgb(100%,63.921569%,31.372549%);stop-opacity:1;"/>
<stop offset="0.78125" style="stop-color:rgb(100%,63.529412%,31.372549%);stop-opacity:1;"/>
<stop offset="0.789062" style="stop-color:rgb(100%,63.529412%,31.372549%);stop-opacity:1;"/>
<stop offset="0.796875" style="stop-color:rgb(100%,63.137255%,30.980392%);stop-opacity:1;"/>
<stop offset="0.804688" style="stop-color:rgb(100%,62.745098%,30.980392%);stop-opacity:1;"/>
<stop offset="0.8125" style="stop-color:rgb(100%,62.745098%,30.980392%);stop-opacity:1;"/>
<stop offset="0.820312" style="stop-color:rgb(100%,62.352941%,30.980392%);stop-opacity:1;"/>
<stop offset="0.828125" style="stop-color:rgb(100%,62.352941%,30.980392%);stop-opacity:1;"/>
<stop offset="0.835938" style="stop-color:rgb(100%,61.960784%,30.980392%);stop-opacity:1;"/>
<stop offset="0.84375" style="stop-color:rgb(100%,61.568627%,30.980392%);stop-opacity:1;"/>
<stop offset="0.851562" style="stop-color:rgb(100%,61.568627%,30.980392%);stop-opacity:1;"/>
<stop offset="0.859375" style="stop-color:rgb(100%,61.176471%,30.980392%);stop-opacity:1;"/>
<stop offset="0.867188" style="stop-color:rgb(100%,61.176471%,30.980392%);stop-opacity:1;"/>
<stop offset="0.875" style="stop-color:rgb(100%,60.784314%,30.980392%);stop-opacity:1;"/>
<stop offset="0.882812" style="stop-color:rgb(100%,60.392157%,30.588235%);stop-opacity:1;"/>
<stop offset="0.890625" style="stop-color:rgb(100%,60.392157%,30.588235%);stop-opacity:1;"/>
<stop offset="0.898438" style="stop-color:rgb(100%,60%,30.588235%);stop-opacity:1;"/>
<stop offset="0.90625" style="stop-color:rgb(100%,60%,30.588235%);stop-opacity:1;"/>
<stop offset="0.914062" style="stop-color:rgb(100%,59.607843%,30.588235%);stop-opacity:1;"/>
<stop offset="0.921875" style="stop-color:rgb(100%,59.215686%,30.588235%);stop-opacity:1;"/>
<stop offset="0.929688" style="stop-color:rgb(100%,59.215686%,30.588235%);stop-opacity:1;"/>
<stop offset="0.9375" style="stop-color:rgb(100%,58.823529%,30.588235%);stop-opacity:1;"/>
<stop offset="0.945312" style="stop-color:rgb(100%,58.823529%,30.588235%);stop-opacity:1;"/>
<stop offset="0.953125" style="stop-color:rgb(100%,58.431373%,30.588235%);stop-opacity:1;"/>
<stop offset="0.960938" style="stop-color:rgb(100%,58.039216%,30.588235%);stop-opacity:1;"/>
<stop offset="0.96875" style="stop-color:rgb(100%,58.039216%,30.196078%);stop-opacity:1;"/>
<stop offset="0.976562" style="stop-color:rgb(100%,57.647059%,30.196078%);stop-opacity:1;"/>
<stop offset="0.984375" style="stop-color:rgb(100%,57.647059%,30.196078%);stop-opacity:1;"/>
<stop offset="0.992188" style="stop-color:rgb(100%,57.254902%,30.196078%);stop-opacity:1;"/>
<stop offset="1" style="stop-color:rgb(100%,56.862745%,30.196078%);stop-opacity:1;"/>
</linearGradient>
<clipPath id="clip6">
  <path d="M 2.476562 7.441406 L 29 7.441406 L 29 36.898438 L 2.476562 36.898438 Z M 2.476562 7.441406 "/>
</clipPath>
<clipPath id="clip7">
  <path d="M 31.265625 12.578125 L 9.355469 39.183594 L 0.257812 31.675781 L 22.167969 5.074219 Z M 31.265625 12.578125 "/>
</clipPath>
<clipPath id="clip8">
  <path d="M 13.121094 34.609375 C 11.050781 37.125 7.335938 37.480469 4.824219 35.410156 C 2.3125 33.335938 1.953125 29.617188 4.023438 27.105469 L 18.417969 9.625 C 20.488281 7.109375 24.207031 6.753906 26.71875 8.828125 C 29.230469 10.898438 29.585938 14.617188 27.515625 17.132812 Z M 13.121094 34.609375 "/>
</clipPath>
<linearGradient id="linear1" gradientUnits="userSpaceOnUse" x1="1.999996" y1="2" x2="109.917174" y2="2" gradientTransform="matrix(1,0,0,1,0.00000416897,-0.000000185237)">
<stop offset="0" style="stop-color:rgb(100%,86.666667%,34.901961%);stop-opacity:1;"/>
<stop offset="0.0078125" style="stop-color:rgb(100%,86.27451%,34.901961%);stop-opacity:1;"/>
<stop offset="0.015625" style="stop-color:rgb(100%,86.27451%,34.901961%);stop-opacity:1;"/>
<stop offset="0.0234375" style="stop-color:rgb(100%,85.882353%,34.901961%);stop-opacity:1;"/>
<stop offset="0.03125" style="stop-color:rgb(100%,85.882353%,34.509804%);stop-opacity:1;"/>
<stop offset="0.0390625" style="stop-color:rgb(100%,85.490196%,34.509804%);stop-opacity:1;"/>
<stop offset="0.046875" style="stop-color:rgb(100%,85.490196%,34.509804%);stop-opacity:1;"/>
<stop offset="0.0546875" style="stop-color:rgb(100%,85.098039%,34.509804%);stop-opacity:1;"/>
<stop offset="0.0625" style="stop-color:rgb(100%,84.705882%,34.509804%);stop-opacity:1;"/>
<stop offset="0.0703125" style="stop-color:rgb(100%,84.705882%,34.509804%);stop-opacity:1;"/>
<stop offset="0.078125" style="stop-color:rgb(100%,84.313725%,34.509804%);stop-opacity:1;"/>
<stop offset="0.0859375" style="stop-color:rgb(100%,84.313725%,34.509804%);stop-opacity:1;"/>
<stop offset="0.09375" style="stop-color:rgb(100%,83.921569%,34.509804%);stop-opacity:1;"/>
<stop offset="0.101562" style="stop-color:rgb(100%,83.529412%,34.509804%);stop-opacity:1;"/>
<stop offset="0.109375" style="stop-color:rgb(100%,83.529412%,34.509804%);stop-opacity:1;"/>
<stop offset="0.117188" style="stop-color:rgb(100%,83.137255%,34.117647%);stop-opacity:1;"/>
<stop offset="0.125" style="stop-color:rgb(100%,83.137255%,34.117647%);stop-opacity:1;"/>
<stop offset="0.132812" style="stop-color:rgb(100%,82.745098%,34.117647%);stop-opacity:1;"/>
<stop offset="0.140625" style="stop-color:rgb(100%,82.745098%,34.117647%);stop-opacity:1;"/>
<stop offset="0.148437" style="stop-color:rgb(100%,82.352941%,34.117647%);stop-opacity:1;"/>
<stop offset="0.15625" style="stop-color:rgb(100%,81.960784%,34.117647%);stop-opacity:1;"/>
<stop offset="0.164062" style="stop-color:rgb(100%,81.960784%,34.117647%);stop-opacity:1;"/>
<stop offset="0.171875" style="stop-color:rgb(100%,81.568627%,34.117647%);stop-opacity:1;"/>
<stop offset="0.179688" style="stop-color:rgb(100%,81.568627%,34.117647%);stop-opacity:1;"/>
<stop offset="0.1875" style="stop-color:rgb(100%,81.176471%,34.117647%);stop-opacity:1;"/>
<stop offset="0.195312" style="stop-color:rgb(100%,81.176471%,34.117647%);stop-opacity:1;"/>
<stop offset="0.203125" style="stop-color:rgb(100%,80.784314%,33.72549%);stop-opacity:1;"/>
<stop offset="0.210938" style="stop-color:rgb(100%,80.392157%,33.72549%);stop-opacity:1;"/>
<stop offset="0.21875" style="stop-color:rgb(100%,80.392157%,33.72549%);stop-opacity:1;"/>
<stop offset="0.226563" style="stop-color:rgb(100%,80%,33.72549%);stop-opacity:1;"/>
<stop offset="0.234375" style="stop-color:rgb(100%,80%,33.72549%);stop-opacity:1;"/>
<stop offset="0.242188" style="stop-color:rgb(100%,79.607843%,33.72549%);stop-opacity:1;"/>
<stop offset="0.25" style="stop-color:rgb(100%,79.215686%,33.72549%);stop-opacity:1;"/>
<stop offset="0.257813" style="stop-color:rgb(100%,79.215686%,33.72549%);stop-opacity:1;"/>
<stop offset="0.265625" style="stop-color:rgb(100%,78.823529%,33.72549%);stop-opacity:1;"/>
<stop offset="0.273438" style="stop-color:rgb(100%,78.823529%,33.72549%);stop-opacity:1;"/>
<stop offset="0.28125" style="stop-color:rgb(100%,78.431373%,33.72549%);stop-opacity:1;"/>
<stop offset="0.289063" style="stop-color:rgb(100%,78.431373%,33.333333%);stop-opacity:1;"/>
<stop offset="0.296875" style="stop-color:rgb(100%,78.039216%,33.333333%);stop-opacity:1;"/>
<stop offset="0.304688" style="stop-color:rgb(100%,77.647059%,33.333333%);stop-opacity:1;"/>
<stop offset="0.3125" style="stop-color:rgb(100%,77.647059%,33.333333%);stop-opacity:1;"/>
<stop offset="0.320313" style="stop-color:rgb(100%,77.254902%,33.333333%);stop-opacity:1;"/>
<stop offset="0.328125" style="stop-color:rgb(100%,77.254902%,33.333333%);stop-opacity:1;"/>
<stop offset="0.335938" style="stop-color:rgb(100%,76.862745%,33.333333%);stop-opacity:1;"/>
<stop offset="0.34375" style="stop-color:rgb(100%,76.470588%,33.333333%);stop-opacity:1;"/>
<stop offset="0.351563" style="stop-color:rgb(100%,76.470588%,33.333333%);stop-opacity:1;"/>
<stop offset="0.359375" style="stop-color:rgb(100%,76.078431%,33.333333%);stop-opacity:1;"/>
<stop offset="0.367188" style="stop-color:rgb(100%,76.078431%,33.333333%);stop-opacity:1;"/>
<stop offset="0.375" style="stop-color:rgb(100%,75.686275%,32.941176%);stop-opacity:1;"/>
<stop offset="0.382813" style="stop-color:rgb(100%,75.686275%,32.941176%);stop-opacity:1;"/>
<stop offset="0.390625" style="stop-color:rgb(100%,75.294118%,32.941176%);stop-opacity:1;"/>
<stop offset="0.398438" style="stop-color:rgb(100%,74.901961%,32.941176%);stop-opacity:1;"/>
<stop offset="0.40625" style="stop-color:rgb(100%,74.901961%,32.941176%);stop-opacity:1;"/>
<stop offset="0.414062" style="stop-color:rgb(100%,74.509804%,32.941176%);stop-opacity:1;"/>
<stop offset="0.421875" style="stop-color:rgb(100%,74.509804%,32.941176%);stop-opacity:1;"/>
<stop offset="0.429688" style="stop-color:rgb(100%,74.117647%,32.941176%);stop-opacity:1;"/>
<stop offset="0.4375" style="stop-color:rgb(100%,74.117647%,32.941176%);stop-opacity:1;"/>
<stop offset="0.445313" style="stop-color:rgb(100%,73.72549%,32.941176%);stop-opacity:1;"/>
<stop offset="0.453125" style="stop-color:rgb(100%,73.333333%,32.941176%);stop-opacity:1;"/>
<stop offset="0.460938" style="stop-color:rgb(100%,73.333333%,32.54902%);stop-opacity:1;"/>
<stop offset="0.46875" style="stop-color:rgb(100%,72.941176%,32.54902%);stop-opacity:1;"/>
<stop offset="0.476563" style="stop-color:rgb(100%,72.941176%,32.54902%);stop-opacity:1;"/>
<stop offset="0.484375" style="stop-color:rgb(100%,72.54902%,32.54902%);stop-opacity:1;"/>
<stop offset="0.492188" style="stop-color:rgb(100%,72.156863%,32.54902%);stop-opacity:1;"/>
<stop offset="0.5" style="stop-color:rgb(100%,72.156863%,32.54902%);stop-opacity:1;"/>
<stop offset="0.507812" style="stop-color:rgb(100%,71.764706%,32.54902%);stop-opacity:1;"/>
<stop offset="0.515625" style="stop-color:rgb(100%,71.764706%,32.54902%);stop-opacity:1;"/>
<stop offset="0.523438" style="stop-color:rgb(100%,71.372549%,32.54902%);stop-opacity:1;"/>
<stop offset="0.53125" style="stop-color:rgb(100%,71.372549%,32.54902%);stop-opacity:1;"/>
<stop offset="0.539062" style="stop-color:rgb(100%,70.980392%,32.54902%);stop-opacity:1;"/>
<stop offset="0.546875" style="stop-color:rgb(100%,70.588235%,32.54902%);stop-opacity:1;"/>
<stop offset="0.554687" style="stop-color:rgb(100%,70.588235%,32.156863%);stop-opacity:1;"/>
<stop offset="0.5625" style="stop-color:rgb(100%,70.196078%,32.156863%);stop-opacity:1;"/>
<stop offset="0.570312" style="stop-color:rgb(100%,70.196078%,32.156863%);stop-opacity:1;"/>
<stop offset="0.578125" style="stop-color:rgb(100%,69.803922%,32.156863%);stop-opacity:1;"/>
<stop offset="0.585937" style="stop-color:rgb(100%,69.803922%,32.156863%);stop-opacity:1;"/>
<stop offset="0.59375" style="stop-color:rgb(100%,69.411765%,32.156863%);stop-opacity:1;"/>
<stop offset="0.601562" style="stop-color:rgb(100%,69.019608%,32.156863%);stop-opacity:1;"/>
<stop offset="0.609375" style="stop-color:rgb(100%,69.019608%,32.156863%);stop-opacity:1;"/>
<stop offset="0.617187" style="stop-color:rgb(100%,68.627451%,32.156863%);stop-opacity:1;"/>
<stop offset="0.625" style="stop-color:rgb(100%,68.627451%,32.156863%);stop-opacity:1;"/>
<stop offset="0.632812" style="stop-color:rgb(100%,68.235294%,32.156863%);stop-opacity:1;"/>
<stop offset="0.640625" style="stop-color:rgb(100%,67.843137%,31.764706%);stop-opacity:1;"/>
<stop offset="0.648437" style="stop-color:rgb(100%,67.843137%,31.764706%);stop-opacity:1;"/>
<stop offset="0.65625" style="stop-color:rgb(100%,67.45098%,31.764706%);stop-opacity:1;"/>
<stop offset="0.664062" style="stop-color:rgb(100%,67.45098%,31.764706%);stop-opacity:1;"/>
<stop offset="0.671875" style="stop-color:rgb(100%,67.058824%,31.764706%);stop-opacity:1;"/>
<stop offset="0.679687" style="stop-color:rgb(100%,67.058824%,31.764706%);stop-opacity:1;"/>
<stop offset="0.6875" style="stop-color:rgb(100%,66.666667%,31.764706%);stop-opacity:1;"/>
<stop offset="0.695312" style="stop-color:rgb(100%,66.27451%,31.764706%);stop-opacity:1;"/>
<stop offset="0.703125" style="stop-color:rgb(100%,66.27451%,31.764706%);stop-opacity:1;"/>
<stop offset="0.710937" style="stop-color:rgb(100%,65.882353%,31.764706%);stop-opacity:1;"/>
<stop offset="0.71875" style="stop-color:rgb(100%,65.882353%,31.764706%);stop-opacity:1;"/>
<stop offset="0.726562" style="stop-color:rgb(100%,65.490196%,31.372549%);stop-opacity:1;"/>
<stop offset="0.734375" style="stop-color:rgb(100%,65.098039%,31.372549%);stop-opacity:1;"/>
<stop offset="0.742187" style="stop-color:rgb(100%,65.098039%,31.372549%);stop-opacity:1;"/>
<stop offset="0.75" style="stop-color:rgb(100%,64.705882%,31.372549%);stop-opacity:1;"/>
<stop offset="0.757813" style="stop-color:rgb(100%,64.705882%,31.372549%);stop-opacity:1;"/>
<stop offset="0.765625" style="stop-color:rgb(100%,64.313725%,31.372549%);stop-opacity:1;"/>
<stop offset="0.773438" style="stop-color:rgb(100%,64.313725%,31.372549%);stop-opacity:1;"/>
<stop offset="0.78125" style="stop-color:rgb(100%,63.921569%,31.372549%);stop-opacity:1;"/>
<stop offset="0.789063" style="stop-color:rgb(100%,63.529412%,31.372549%);stop-opacity:1;"/>
<stop offset="0.796875" style="stop-color:rgb(100%,63.529412%,31.372549%);stop-opacity:1;"/>
<stop offset="0.804688" style="stop-color:rgb(100%,63.137255%,31.372549%);stop-opacity:1;"/>
<stop offset="0.8125" style="stop-color:rgb(100%,63.137255%,30.980392%);stop-opacity:1;"/>
<stop offset="0.820313" style="stop-color:rgb(100%,62.745098%,30.980392%);stop-opacity:1;"/>
<stop offset="0.828125" style="stop-color:rgb(100%,62.745098%,30.980392%);stop-opacity:1;"/>
<stop offset="0.835938" style="stop-color:rgb(100%,62.352941%,30.980392%);stop-opacity:1;"/>
<stop offset="0.84375" style="stop-color:rgb(100%,61.960784%,30.980392%);stop-opacity:1;"/>
<stop offset="0.851563" style="stop-color:rgb(100%,61.960784%,30.980392%);stop-opacity:1;"/>
<stop offset="0.859375" style="stop-color:rgb(100%,61.568627%,30.980392%);stop-opacity:1;"/>
<stop offset="0.867188" style="stop-color:rgb(100%,61.568627%,30.980392%);stop-opacity:1;"/>
<stop offset="0.875" style="stop-color:rgb(100%,61.176471%,30.980392%);stop-opacity:1;"/>
<stop offset="0.882813" style="stop-color:rgb(100%,60.784314%,30.980392%);stop-opacity:1;"/>
<stop offset="0.890625" style="stop-color:rgb(100%,60.784314%,30.980392%);stop-opacity:1;"/>
<stop offset="0.898438" style="stop-color:rgb(100%,60.392157%,30.588235%);stop-opacity:1;"/>
<stop offset="0.90625" style="stop-color:rgb(100%,60.392157%,30.588235%);stop-opacity:1;"/>
<stop offset="0.914063" style="stop-color:rgb(100%,60%,30.588235%);stop-opacity:1;"/>
<stop offset="0.921875" style="stop-color:rgb(100%,60%,30.588235%);stop-opacity:1;"/>
<stop offset="0.929688" style="stop-color:rgb(100%,59.607843%,30.588235%);stop-opacity:1;"/>
<stop offset="0.9375" style="stop-color:rgb(100%,59.215686%,30.588235%);stop-opacity:1;"/>
<stop offset="0.945313" style="stop-color:rgb(100%,59.215686%,30.588235%);stop-opacity:1;"/>
<stop offset="0.953125" style="stop-color:rgb(100%,58.823529%,30.588235%);stop-opacity:1;"/>
<stop offset="0.960938" style="stop-color:rgb(100%,58.823529%,30.588235%);stop-opacity:1;"/>
<stop offset="0.96875" style="stop-color:rgb(100%,58.431373%,30.588235%);stop-opacity:1;"/>
<stop offset="0.976562" style="stop-color:rgb(100%,58.039216%,30.588235%);stop-opacity:1;"/>
<stop offset="0.984375" style="stop-color:rgb(100%,58.039216%,30.196078%);stop-opacity:1;"/>
<stop offset="0.992188" style="stop-color:rgb(100%,57.647059%,30.196078%);stop-opacity:1;"/>
<stop offset="1" style="stop-color:rgb(100%,57.647059%,30.196078%);stop-opacity:1;"/>
</linearGradient>
</defs>
<g id="surface1">
<g clip-path="url(#clip1)" clip-rule="nonzero">
<g clip-path="url(#clip2)" clip-rule="nonzero">
<g clip-path="url(#clip3)" clip-rule="nonzero">
<path style=" stroke:none;fill-rule:nonzero;fill:rgb(100%,56.862745%,30.196078%);fill-opacity:1;" d="M 16.789062 13.644531 L 31.265625 31.804688 L 22.050781 39.164062 L 7.574219 21.003906 Z M 16.789062 13.644531 "/>
</g>
</g>
</g>
<g clip-path="url(#clip4)" clip-rule="nonzero">
<g clip-path="url(#clip5)" clip-rule="nonzero">
<path style=" stroke:none;fill-rule:nonzero;fill:url(#linear0);" d="M 14.546875 7.515625 L 2.757812 7.515625 L 2.757812 36.488281 L 14.546875 36.488281 Z M 14.546875 7.515625 "/>
</g>
</g>
<g clip-path="url(#clip6)" clip-rule="nonzero">
<g clip-path="url(#clip7)" clip-rule="nonzero">
<g clip-path="url(#clip8)" clip-rule="nonzero">
<path style=" stroke:none;fill-rule:nonzero;fill:rgb(99.607843%,43.921569%,15.686275%);fill-opacity:1;" d="M 31.265625 12.578125 L 9.382812 39.148438 L 0.285156 31.640625 L 22.167969 5.074219 Z M 31.265625 12.578125 "/>
</g>
</g>
</g>
<path style=" stroke:none;fill-rule:nonzero;fill:rgb(100%,56.862745%,30.196078%);fill-opacity:1;" d="M 41.226562 16.40625 L 45.246094 12.453125 C 45.578125 12.121094 45.617188 11.660156 45.324219 11.328125 C 45.007812 10.992188 44.507812 10.960938 44.195312 11.289062 L 38.425781 16.976562 L 38.425781 11.847656 C 38.425781 11.417969 38.070312 11.070312 37.628906 11.070312 C 37.183594 11.070312 36.816406 11.417969 36.816406 11.847656 L 36.816406 22.089844 C 36.816406 22.535156 37.183594 22.882812 37.628906 22.882812 C 38.070312 22.882812 38.425781 22.535156 38.425781 22.089844 L 38.425781 19.027344 L 40.097656 17.476562 L 44.5625 22.640625 C 44.824219 22.996094 45.335938 22.9375 45.652344 22.679688 C 45.964844 22.402344 45.925781 21.886719 45.652344 21.515625 Z M 41.226562 16.40625 "/>
<path style=" stroke:none;fill-rule:nonzero;fill:rgb(100%,56.862745%,30.196078%);fill-opacity:1;" d="M 52.824219 11.789062 C 52.601562 11.253906 52.382812 11.070312 51.917969 11.070312 C 51.441406 11.070312 51.164062 11.402344 50.980469 11.808594 L 46.792969 21.757812 C 46.574219 22.3125 46.867188 22.863281 47.496094 22.882812 C 47.828125 22.902344 48.105469 22.71875 48.230469 22.402344 L 49.0625 20.355469 L 54.78125 20.355469 L 55.609375 22.402344 C 55.738281 22.71875 56.035156 22.902344 56.367188 22.902344 C 56.992188 22.863281 57.269531 22.238281 57.050781 21.757812 Z M 51.917969 13.265625 L 54.191406 18.875 L 49.65625 18.875 Z M 51.917969 13.265625 "/>
<path style=" stroke:none;fill-rule:nonzero;fill:rgb(100%,56.862745%,30.196078%);fill-opacity:1;" d="M 59.761719 22.882812 C 60.199219 22.882812 60.554688 22.535156 60.554688 22.089844 L 60.554688 11.847656 C 60.554688 11.402344 60.199219 11.070312 59.761719 11.070312 C 59.316406 11.070312 58.945312 11.402344 58.945312 11.847656 L 58.945312 22.089844 C 58.945312 22.535156 59.316406 22.882812 59.761719 22.882812 Z M 59.761719 22.882812 "/>
<path style=" stroke:none;fill-rule:nonzero;fill:rgb(100%,56.862745%,30.196078%);fill-opacity:1;" d="M 68.390625 16.9375 L 71.964844 12.417969 C 72.261719 12.0625 72.300781 11.566406 71.984375 11.289062 C 71.65625 10.980469 71.136719 11.011719 70.84375 11.347656 L 67.410156 15.683594 L 63.890625 11.347656 C 63.578125 11.011719 63.058594 10.980469 62.730469 11.273438 C 62.394531 11.566406 62.433594 12.082031 62.730469 12.417969 L 66.378906 16.917969 L 62.710938 21.554688 C 62.414062 21.867188 62.394531 22.351562 62.746094 22.679688 C 63.078125 22.996094 63.558594 22.957031 63.851562 22.605469 L 67.378906 18.160156 L 70.894531 22.625 C 71.191406 22.957031 71.691406 22.996094 72.023438 22.679688 C 72.320312 22.402344 72.371094 21.941406 72.042969 21.554688 Z M 68.390625 16.9375 "/>
<path style=" stroke:none;fill-rule:nonzero;fill:rgb(100%,56.862745%,30.196078%);fill-opacity:1;" d="M 37.710938 32.882812 L 37.710938 29.289062 C 37.710938 29.0625 37.527344 28.894531 37.304688 28.894531 C 37.082031 28.894531 36.90625 29.0625 36.90625 29.289062 L 36.90625 33.21875 C 36.90625 33.472656 37.035156 33.617188 37.304688 33.617188 L 39.753906 33.617188 C 39.980469 33.617188 40.148438 33.4375 40.148438 33.21875 C 40.148438 33.066406 39.976562 32.882812 39.753906 32.882812 Z M 37.710938 32.882812 "/>
<path style=" stroke:none;fill-rule:nonzero;fill:rgb(100%,56.862745%,30.196078%);fill-opacity:1;" d="M 41.128906 33.617188 C 41.351562 33.617188 41.535156 33.4375 41.535156 33.21875 L 41.535156 29.28125 C 41.535156 29.0625 41.351562 28.894531 41.128906 28.894531 C 40.90625 28.894531 40.734375 29.0625 40.734375 29.28125 L 40.734375 33.21875 C 40.734375 33.4375 40.90625 33.617188 41.128906 33.617188 Z M 41.128906 33.617188 "/>
<path style=" stroke:none;fill-rule:nonzero;fill:rgb(100%,56.862745%,30.196078%);fill-opacity:1;" d="M 43.019531 33.617188 C 43.242188 33.617188 43.425781 33.449219 43.425781 33.21875 L 43.425781 31.78125 L 44.996094 31.78125 C 45.214844 31.78125 45.371094 31.59375 45.371094 31.402344 C 45.371094 31.21875 45.214844 31.039062 44.996094 31.039062 L 43.425781 31.039062 L 43.425781 29.628906 L 45.496094 29.628906 C 45.71875 29.628906 45.886719 29.449219 45.886719 29.289062 C 45.886719 29.066406 45.71875 28.894531 45.496094 28.894531 L 43.019531 28.894531 C 42.722656 28.894531 42.621094 29.105469 42.621094 29.28125 L 42.621094 33.21875 C 42.621094 33.4375 42.796875 33.617188 43.019531 33.617188 Z M 43.019531 33.617188 "/>
<path style=" stroke:none;fill-rule:nonzero;fill:rgb(100%,56.862745%,30.196078%);fill-opacity:1;" d="M 49.449219 33.617188 C 49.671875 33.617188 49.847656 33.449219 49.847656 33.226562 C 49.847656 33.066406 49.671875 32.882812 49.449219 32.882812 L 47.273438 32.882812 L 47.273438 31.605469 L 48.976562 31.605469 C 49.199219 31.605469 49.359375 31.433594 49.359375 31.222656 C 49.359375 31.027344 49.199219 30.867188 48.976562 30.867188 L 47.273438 30.867188 L 47.273438 29.628906 L 49.449219 29.628906 C 49.671875 29.628906 49.847656 29.460938 49.847656 29.289062 C 49.847656 29.066406 49.671875 28.894531 49.449219 28.894531 L 46.867188 28.894531 C 46.640625 28.894531 46.46875 29.066406 46.46875 29.289062 L 46.46875 33.21875 C 46.46875 33.4375 46.628906 33.601562 46.847656 33.617188 Z M 49.449219 33.617188 "/>
<path style=" stroke:none;fill-rule:nonzero;fill:rgb(100%,56.862745%,30.196078%);fill-opacity:1;" d="M 52.832031 33.617188 C 53.054688 33.617188 53.238281 33.4375 53.238281 33.21875 L 53.238281 29.28125 C 53.238281 29.0625 53.054688 28.894531 52.832031 28.894531 C 52.609375 28.894531 52.4375 29.0625 52.4375 29.28125 L 52.4375 33.21875 C 52.4375 33.4375 52.609375 33.617188 52.832031 33.617188 Z M 52.832031 33.617188 "/>
<path style=" stroke:none;fill-rule:nonzero;fill:rgb(100%,56.862745%,30.196078%);fill-opacity:1;" d="M 55.613281 33.683594 C 56.578125 33.683594 57.28125 33.078125 57.28125 32.246094 C 57.28125 31.445312 56.59375 31.109375 55.71875 30.785156 C 55.382812 30.65625 54.972656 30.492188 54.972656 30.082031 C 54.972656 29.71875 55.273438 29.585938 55.578125 29.585938 C 55.929688 29.585938 56.230469 29.683594 56.441406 29.910156 C 56.632812 30.09375 56.871094 30.042969 56.976562 29.933594 C 57.074219 29.84375 57.140625 29.667969 57.054688 29.519531 C 56.773438 29.0625 56.203125 28.824219 55.632812 28.824219 C 54.824219 28.824219 54.1875 29.277344 54.1875 30.105469 C 54.1875 30.914062 54.832031 31.238281 55.5625 31.519531 C 56.125 31.734375 56.476562 31.898438 56.476562 32.246094 C 56.476562 32.726562 56.140625 32.925781 55.695312 32.925781 C 55.222656 32.925781 54.890625 32.742188 54.734375 32.492188 C 54.621094 32.332031 54.492188 32.308594 54.386719 32.308594 C 54.097656 32.308594 53.921875 32.628906 54.097656 32.894531 C 54.324219 33.285156 54.835938 33.683594 55.613281 33.683594 Z M 55.613281 33.683594 "/>
<path style=" stroke:none;fill-rule:nonzero;fill:rgb(100%,56.862745%,30.196078%);fill-opacity:1;" d="M 62.171875 29.261719 C 62.058594 28.984375 61.949219 28.894531 61.710938 28.894531 C 61.480469 28.894531 61.328125 29.054688 61.246094 29.265625 L 59.664062 33.054688 C 59.550781 33.335938 59.699219 33.617188 60.015625 33.617188 C 60.175781 33.617188 60.316406 33.535156 60.386719 33.375 L 60.652344 32.691406 L 62.789062 32.691406 L 63.058594 33.375 C 63.105469 33.53125 63.261719 33.628906 63.425781 33.617188 C 63.738281 33.617188 63.890625 33.292969 63.769531 33.050781 Z M 61.722656 29.992188 L 62.496094 31.957031 L 60.945312 31.957031 Z M 61.722656 29.992188 "/>
<path style=" stroke:none;fill-rule:nonzero;fill:rgb(100%,56.862745%,30.196078%);fill-opacity:1;" d="M 65.617188 34.867188 C 66.335938 34.867188 67.167969 34.324219 67.167969 33.039062 L 67.167969 29.304688 C 67.167969 29.078125 66.996094 28.894531 66.765625 28.894531 C 66.542969 28.894531 66.375 29.078125 66.375 29.304688 L 66.375 33.027344 C 66.375 33.699219 66.132812 34.121094 65.589844 34.152344 C 65.347656 34.179688 65.246094 34.363281 65.246094 34.507812 C 65.246094 34.710938 65.390625 34.867188 65.617188 34.867188 Z M 65.617188 34.867188 "/>
<path style=" stroke:none;fill-rule:nonzero;fill:rgb(100%,56.862745%,30.196078%);fill-opacity:1;" d="M 70.484375 33.683594 C 71.808594 33.683594 72.929688 32.601562 72.929688 31.261719 C 72.929688 29.914062 71.808594 28.824219 70.484375 28.824219 C 69.148438 28.824219 68.046875 29.914062 68.046875 31.261719 C 68.046875 32.601562 69.148438 33.683594 70.484375 33.683594 Z M 70.484375 32.925781 C 69.550781 32.925781 68.851562 32.207031 68.851562 31.261719 C 68.851562 30.304688 69.550781 29.585938 70.484375 29.585938 C 71.417969 29.585938 72.132812 30.304688 72.132812 31.261719 C 72.132812 32.207031 71.417969 32.925781 70.484375 32.925781 Z M 70.484375 32.925781 "/>
<path style=" stroke:none;fill-rule:nonzero;fill:rgb(100%,56.862745%,30.196078%);fill-opacity:1;" d="M 77.332031 28.894531 C 77.113281 28.894531 76.925781 29.0625 76.925781 29.28125 L 76.925781 31.617188 C 76.925781 32.332031 76.371094 32.914062 75.710938 32.914062 C 75.007812 32.914062 74.460938 32.339844 74.460938 31.617188 L 74.460938 29.296875 C 74.460938 29.066406 74.285156 28.894531 74.0625 28.894531 C 73.839844 28.894531 73.667969 29.066406 73.667969 29.296875 L 73.667969 31.578125 C 73.667969 32.726562 74.566406 33.683594 75.710938 33.683594 C 76.785156 33.683594 77.734375 32.726562 77.734375 31.578125 L 77.734375 29.28125 C 77.734375 29.0625 77.554688 28.894531 77.332031 28.894531 Z M 77.332031 28.894531 "/>
<path style=" stroke:none;fill-rule:nonzero;fill:rgb(100%,56.862745%,30.196078%);fill-opacity:1;" d="M 81.34375 31.941406 C 81.824219 31.683594 82.15625 31.234375 82.15625 30.558594 C 82.15625 29.628906 81.367188 28.894531 80.386719 28.894531 L 79.078125 28.894531 C 78.855469 28.894531 78.679688 29.066406 78.679688 29.289062 L 78.679688 33.21875 C 78.679688 33.4375 78.855469 33.617188 79.078125 33.617188 C 79.300781 33.617188 79.484375 33.4375 79.484375 33.21875 L 79.484375 32.183594 L 80.265625 32.183594 C 80.355469 32.183594 80.453125 32.179688 80.539062 32.167969 L 81.472656 33.476562 C 81.628906 33.691406 81.894531 33.671875 82.074219 33.535156 C 82.234375 33.417969 82.257812 33.195312 82.078125 32.957031 Z M 79.484375 29.628906 L 80.398438 29.628906 C 80.964844 29.628906 81.347656 30.050781 81.347656 30.558594 C 81.347656 31.070312 80.960938 31.445312 80.390625 31.445312 L 79.484375 31.445312 Z M 79.484375 29.628906 "/>
<path style=" stroke:none;fill-rule:nonzero;fill:rgb(100%,56.862745%,30.196078%);fill-opacity:1;" d="M 86.699219 28.894531 C 86.476562 28.894531 86.292969 29.0625 86.292969 29.28125 L 86.292969 32.179688 L 83.742188 29.039062 C 83.617188 28.894531 83.417969 28.863281 83.265625 28.921875 C 83.125 28.980469 83.023438 29.113281 83.023438 29.296875 L 83.023438 33.21875 C 83.023438 33.4375 83.199219 33.617188 83.421875 33.617188 C 83.644531 33.617188 83.828125 33.4375 83.828125 33.21875 L 83.828125 30.292969 L 86.410156 33.460938 C 86.535156 33.628906 86.714844 33.65625 86.84375 33.589844 C 86.984375 33.53125 87.097656 33.390625 87.097656 33.21875 L 87.097656 29.28125 C 87.097656 29.0625 86.925781 28.894531 86.699219 28.894531 Z M 86.699219 28.894531 "/>
<path style=" stroke:none;fill-rule:nonzero;fill:rgb(100%,56.862745%,30.196078%);fill-opacity:1;" d="M 91.164062 33.617188 C 91.386719 33.617188 91.566406 33.449219 91.566406 33.226562 C 91.566406 33.066406 91.386719 32.882812 91.164062 32.882812 L 88.992188 32.882812 L 88.992188 31.605469 L 90.695312 31.605469 C 90.917969 31.605469 91.078125 31.433594 91.078125 31.222656 C 91.078125 31.027344 90.917969 30.867188 90.695312 30.867188 L 88.992188 30.867188 L 88.992188 29.628906 L 91.164062 29.628906 C 91.386719 29.628906 91.566406 29.460938 91.566406 29.289062 C 91.566406 29.066406 91.386719 28.894531 91.164062 28.894531 L 88.582031 28.894531 C 88.355469 28.894531 88.1875 29.066406 88.1875 29.289062 L 88.1875 33.21875 C 88.1875 33.4375 88.347656 33.601562 88.5625 33.617188 Z M 91.164062 33.617188 "/>
<path style=" stroke:none;fill-rule:nonzero;fill:rgb(100%,56.862745%,30.196078%);fill-opacity:1;" d="M 93.828125 33.617188 C 94.039062 33.617188 94.222656 33.4375 94.222656 33.21875 L 94.222656 31.980469 L 95.628906 29.558594 C 95.78125 29.359375 95.738281 29.125 95.582031 28.984375 C 95.414062 28.84375 95.171875 28.863281 95.023438 29.023438 L 93.828125 31.253906 L 92.617188 29.035156 C 92.484375 28.855469 92.21875 28.84375 92.054688 28.996094 C 91.886719 29.152344 91.871094 29.402344 92.019531 29.5625 L 93.429688 31.980469 L 93.429688 33.21875 C 93.429688 33.4375 93.605469 33.617188 93.828125 33.617188 Z M 93.828125 33.617188 "/>
<path style="fill:none;stroke-width:4;stroke-linecap:round;stroke-linejoin:miter;stroke:url(#linear1);stroke-miterlimit:4;" d="M 1.999191 1.995296 L 109.926243 1.995296 " transform="matrix(0,0.230769,-0.230559,0,33.764721,9.206617)"/>
</g>
</svg>
